<mxfile host="Electron" modified="2024-04-22T14:27:04.523Z" agent="Mozilla/5.0 (Windows NT 10.0; Win64; x64) AppleWebKit/537.36 (KHTML, like Gecko) draw.io/22.1.2 Chrome/114.0.5735.289 Electron/25.9.4 Safari/537.36" etag="eJLvj9oARIvezNN8PUbX" version="22.1.2" type="device">
  <diagram name="Page-1" id="IYQpp4S1XSdiVQhqarFW">
    <mxGraphModel dx="1098" dy="2280" grid="1" gridSize="10" guides="1" tooltips="1" connect="1" arrows="1" fold="1" page="1" pageScale="1" pageWidth="850" pageHeight="1100" math="0" shadow="0">
      <root>
        <mxCell id="0" />
        <mxCell id="1" parent="0" />
        <mxCell id="jhpEfanqhpTpWL9l5vz8-1" value="Repository" style="rounded=1;whiteSpace=wrap;html=1;dashed=1;dashPattern=8 8;gradientColor=default;fillColor=none;labelPosition=center;verticalLabelPosition=top;align=center;verticalAlign=bottom;fontStyle=1;fontSize=14;" vertex="1" parent="1">
          <mxGeometry x="560" y="-520" width="360" height="640" as="geometry" />
        </mxCell>
        <mxCell id="jhpEfanqhpTpWL9l5vz8-2" style="edgeStyle=orthogonalEdgeStyle;rounded=0;orthogonalLoop=1;jettySize=auto;html=1;exitX=0.5;exitY=1;exitDx=0;exitDy=0;entryX=0.5;entryY=0;entryDx=0;entryDy=0;" edge="1" parent="1" source="jhpEfanqhpTpWL9l5vz8-3" target="jhpEfanqhpTpWL9l5vz8-4">
          <mxGeometry relative="1" as="geometry" />
        </mxCell>
        <mxCell id="jhpEfanqhpTpWL9l5vz8-3" value="Aggregate" style="rounded=0;whiteSpace=wrap;html=1;fillColor=#dae8fc;strokeColor=#6c8ebf;" vertex="1" parent="1">
          <mxGeometry x="600" y="-620" width="120" height="60" as="geometry" />
        </mxCell>
        <mxCell id="jhpEfanqhpTpWL9l5vz8-4" value="Extract&lt;br&gt;Aggregate Data" style="rounded=0;whiteSpace=wrap;html=1;fillColor=#fff2cc;strokeColor=#d6b656;" vertex="1" parent="1">
          <mxGeometry x="600" y="-480" width="120" height="60" as="geometry" />
        </mxCell>
        <mxCell id="jhpEfanqhpTpWL9l5vz8-5" style="edgeStyle=orthogonalEdgeStyle;rounded=0;orthogonalLoop=1;jettySize=auto;html=1;entryX=0.5;entryY=0;entryDx=0;entryDy=0;exitX=0.5;exitY=1;exitDx=0;exitDy=0;" edge="1" parent="1" source="jhpEfanqhpTpWL9l5vz8-4" target="jhpEfanqhpTpWL9l5vz8-7">
          <mxGeometry relative="1" as="geometry">
            <mxPoint x="660" y="-300" as="sourcePoint" />
          </mxGeometry>
        </mxCell>
        <mxCell id="jhpEfanqhpTpWL9l5vz8-6" style="edgeStyle=orthogonalEdgeStyle;rounded=0;orthogonalLoop=1;jettySize=auto;html=1;exitX=0.5;exitY=1;exitDx=0;exitDy=0;" edge="1" parent="1" source="jhpEfanqhpTpWL9l5vz8-7" target="jhpEfanqhpTpWL9l5vz8-10">
          <mxGeometry relative="1" as="geometry" />
        </mxCell>
        <mxCell id="jhpEfanqhpTpWL9l5vz8-7" value="Wrap extracted events&amp;nbsp;with Event&amp;nbsp; store event" style="rounded=0;whiteSpace=wrap;html=1;fillColor=#fff2cc;strokeColor=#d6b656;" vertex="1" parent="1">
          <mxGeometry x="600" y="-360" width="120" height="60" as="geometry" />
        </mxCell>
        <mxCell id="jhpEfanqhpTpWL9l5vz8-8" style="edgeStyle=orthogonalEdgeStyle;rounded=0;orthogonalLoop=1;jettySize=auto;html=1;exitX=0.5;exitY=1;exitDx=0;exitDy=0;entryX=0.5;entryY=0;entryDx=0;entryDy=0;" edge="1" parent="1" source="jhpEfanqhpTpWL9l5vz8-10" target="jhpEfanqhpTpWL9l5vz8-13">
          <mxGeometry relative="1" as="geometry" />
        </mxCell>
        <mxCell id="jhpEfanqhpTpWL9l5vz8-9" style="edgeStyle=orthogonalEdgeStyle;rounded=0;orthogonalLoop=1;jettySize=auto;html=1;exitX=1;exitY=0.5;exitDx=0;exitDy=0;" edge="1" parent="1" source="jhpEfanqhpTpWL9l5vz8-10" target="jhpEfanqhpTpWL9l5vz8-17">
          <mxGeometry relative="1" as="geometry" />
        </mxCell>
        <mxCell id="jhpEfanqhpTpWL9l5vz8-10" value="Persists&lt;br&gt;events" style="rounded=0;whiteSpace=wrap;html=1;fillColor=#fff2cc;strokeColor=#d6b656;" vertex="1" parent="1">
          <mxGeometry x="600" y="-240" width="120" height="60" as="geometry" />
        </mxCell>
        <mxCell id="jhpEfanqhpTpWL9l5vz8-11" value="yes" style="edgeStyle=orthogonalEdgeStyle;rounded=0;orthogonalLoop=1;jettySize=auto;html=1;exitX=1;exitY=0.5;exitDx=0;exitDy=0;" edge="1" parent="1" source="jhpEfanqhpTpWL9l5vz8-13" target="jhpEfanqhpTpWL9l5vz8-15">
          <mxGeometry relative="1" as="geometry" />
        </mxCell>
        <mxCell id="jhpEfanqhpTpWL9l5vz8-12" value="no" style="edgeStyle=orthogonalEdgeStyle;rounded=0;orthogonalLoop=1;jettySize=auto;html=1;exitX=0.5;exitY=1;exitDx=0;exitDy=0;entryX=0.5;entryY=0;entryDx=0;entryDy=0;" edge="1" parent="1" source="jhpEfanqhpTpWL9l5vz8-13" target="jhpEfanqhpTpWL9l5vz8-16">
          <mxGeometry relative="1" as="geometry" />
        </mxCell>
        <mxCell id="jhpEfanqhpTpWL9l5vz8-13" value="Create snapshot?" style="rhombus;whiteSpace=wrap;html=1;fillColor=#e1d5e7;strokeColor=#9673a6;" vertex="1" parent="1">
          <mxGeometry x="620" y="-140" width="80" height="80" as="geometry" />
        </mxCell>
        <mxCell id="jhpEfanqhpTpWL9l5vz8-14" style="edgeStyle=orthogonalEdgeStyle;rounded=0;orthogonalLoop=1;jettySize=auto;html=1;exitX=0.5;exitY=1;exitDx=0;exitDy=0;entryX=1;entryY=0.5;entryDx=0;entryDy=0;" edge="1" parent="1" source="jhpEfanqhpTpWL9l5vz8-15" target="jhpEfanqhpTpWL9l5vz8-16">
          <mxGeometry relative="1" as="geometry" />
        </mxCell>
        <mxCell id="jhpEfanqhpTpWL9l5vz8-15" value="Persist&lt;br&gt;Snapshot" style="rounded=0;whiteSpace=wrap;html=1;fillColor=#fff2cc;strokeColor=#d6b656;" vertex="1" parent="1">
          <mxGeometry x="760" y="-130" width="120" height="60" as="geometry" />
        </mxCell>
        <mxCell id="jhpEfanqhpTpWL9l5vz8-16" value="Done" style="ellipse;whiteSpace=wrap;html=1;aspect=fixed;" vertex="1" parent="1">
          <mxGeometry x="620" y="-20" width="80" height="80" as="geometry" />
        </mxCell>
        <mxCell id="jhpEfanqhpTpWL9l5vz8-17" value="Emit Events" style="rounded=0;whiteSpace=wrap;html=1;fillColor=#fff2cc;strokeColor=#d6b656;" vertex="1" parent="1">
          <mxGeometry x="760" y="-240" width="120" height="60" as="geometry" />
        </mxCell>
        <mxCell id="jhpEfanqhpTpWL9l5vz8-18" value="Flow Diagram" style="shape=umlFrame;whiteSpace=wrap;html=1;pointerEvents=0;width=120;height=30;fontStyle=1;strokeWidth=2;" vertex="1" parent="1">
          <mxGeometry x="520" y="-680" width="440" height="840" as="geometry" />
        </mxCell>
      </root>
    </mxGraphModel>
  </diagram>
</mxfile>
